<svg width="239" height="259" viewBox="0 0 239 259" fill="none" xmlns="http://www.w3.org/2000/svg">
<path d="M67.2852 152.746V60.2656H84.668V152.746C84.668 164.139 81.0872 173.221 73.9258 179.992C66.7643 186.698 57.0964 190.051 44.9219 190.051C32.8125 190.051 23.1771 186.893 16.0156 180.578C8.91927 174.263 5.5013 165.246 5.76172 153.527L5.95703 152.941H22.5586C22.5586 160.754 24.5443 166.646 28.5156 170.617C32.487 174.523 37.9232 176.477 44.8242 176.477C51.7904 176.477 57.2591 174.328 61.2305 170.031C65.2669 165.734 67.2852 159.973 67.2852 152.746ZM164.746 132.531H132.52V188H115.234V60.0703H161.523C175.586 60.0703 186.296 63.1628 193.652 69.3477C201.009 75.5326 204.688 84.582 204.688 96.4961C204.688 109.777 197.982 119.348 184.57 125.207C197.786 129.504 204.395 139.562 204.395 155.383V167.395C204.395 176.118 206.348 182.271 210.254 185.852V188H192.383C188.802 184.81 187.012 177.909 187.012 167.297V155.578C187.012 148.612 184.993 143.046 180.957 138.879C176.921 134.647 171.517 132.531 164.746 132.531ZM132.52 73.6445V118.957H159.766C169.531 118.957 176.562 117.134 180.859 113.488C185.221 109.777 187.402 104.048 187.402 96.3008C187.402 81.1966 178.776 73.6445 161.523 73.6445H132.52Z" fill="black"/>
<line x1="65.0144" y1="220" x2="238.03" y2="220.499" stroke="black" stroke-width="10"/>
<line x1="233" y1="225" x2="233" y2="27" stroke="black" stroke-width="10"/>
<line x1="65.0144" y1="31" x2="238.03" y2="31.499" stroke="black" stroke-width="10"/>
</svg>
